<svg id="Layer_2" data-name="Layer 2" xmlns="http://www.w3.org/2000/svg" viewBox="0 0 83.45 99.81"><defs><style>.cls-1{fill:#0071a8;}.cls-2{fill:none;stroke:#0071a8;stroke-miterlimit:10;stroke-width:2px;}</style></defs><title>minervaVetorizada</title><path class="cls-1" d="M40.77,27.39A26.62,26.62,0,0,1,39,23.34a27.42,27.42,0,0,1-1.12-4.23,19.42,19.42,0,0,1,.34-8.86,15.61,15.61,0,0,1,1.89-4.13,8.6,8.6,0,0,1,.65-.93L40.91,5,41,4.84a.57.57,0,0,0-.07.11,1.33,1.33,0,0,0-.11.24A1.17,1.17,0,0,0,41,6.26a1.19,1.19,0,0,0,1.1.43l-1.72.56a44.74,44.74,0,0,0-7.31,3.28A42.3,42.3,0,0,0,20.81,20.76a44.17,44.17,0,0,0-7.6,14.12c-.42,1.28-.79,2.59-1.11,3.89-.14.65-.34,1.34-.43,1.94s-.19,1.33-.26,2a57.92,57.92,0,0,0-.31,8.12,44,44,0,0,0,3.2,15.79,29.89,29.89,0,0,0,4.1,6.88,29.26,29.26,0,0,0,2.76,3c1,1,2,1.91,3,2.81s2.07,1.78,3.17,2.58a10.84,10.84,0,0,1,3.06,3,7.67,7.67,0,0,1,1.38,4,3.4,3.4,0,0,1-.64,2,4.19,4.19,0,0,1-1.63,1.3,4.25,4.25,0,0,0,1.44-1.42,3.33,3.33,0,0,0,.41-1.9,7.46,7.46,0,0,0-1.57-3.61,10.44,10.44,0,0,0-3-2.56c-1.18-.76-2.31-1.59-3.41-2.45s-2.17-1.76-3.21-2.68a32.51,32.51,0,0,1-3-3,30.19,30.19,0,0,1-4.51-7.21A46.06,46.06,0,0,1,9,50.91a62.28,62.28,0,0,1,.21-8.42c.07-.7.15-1.4.25-2.11s.29-1.41.43-2.11c.32-1.38.69-2.74,1.11-4.09a46.71,46.71,0,0,1,7.82-15,44.76,44.76,0,0,1,12.88-11,46.34,46.34,0,0,1,7.73-3.58l1-.34L41,4.06,41.25,4l.12,0,.07,0,.06,0,.19,0a1.7,1.7,0,0,1,1.56.61A1.72,1.72,0,0,1,43.54,6a2,2,0,0,1-.16.36c-.07.11-.16.23-.14.21l-.07.1L43,6.89c-.18.26-.37.51-.53.77A12.76,12.76,0,0,0,41,11.05c-1.37,4.8,0,10.37,2.38,14.82Z" transform="translate(-8.97 -3.85)"/><circle class="cls-2" cx="33.09" cy="22.78" r="0.5"/><path class="cls-1" d="M65.29,61.57a1.5,1.5,0,0,0,0-3,1.5,1.5,0,0,0,0,3Z" transform="translate(-8.97 -3.85)"/><path class="cls-1" d="M64,60.76c.06.11,0,.06.05.07a0,0,0,0,0,0,0l0-.07a.59.59,0,0,0-.18-.17,1.8,1.8,0,0,0-.59-.27,4.54,4.54,0,0,0-1.74,0A7.14,7.14,0,0,0,58,61.77a8.42,8.42,0,0,0-2.4,3.16A31,31,0,0,0,54.13,69c-1.58,5.65-2.66,11.5-4,17.29a44.62,44.62,0,0,1-2.68,8.55,14.93,14.93,0,0,1-5.79,6.77,14,14,0,0,1-4.15,1.71,14.78,14.78,0,0,1-4.45.29,9.28,9.28,0,0,1-4.28-1.15,2.83,2.83,0,0,1-1.29-1.77,3.86,3.86,0,0,1,.3-2.17,3.82,3.82,0,0,0-.25,2.16,2.71,2.71,0,0,0,1.29,1.7,9.14,9.14,0,0,0,4.24,1.05,14.64,14.64,0,0,0,4.38-.38,12.88,12.88,0,0,0,4-1.77,14.42,14.42,0,0,0,5.36-6.73,45.15,45.15,0,0,0,2.33-8.47c1.1-5.81,2-11.67,3.36-17.51a33.14,33.14,0,0,1,1.36-4.36,10.6,10.6,0,0,1,2.72-4A10.05,10.05,0,0,1,61,57.86a8,8,0,0,1,2.67-.21,4.57,4.57,0,0,1,1.5.44,4,4,0,0,1,.74.47,2.54,2.54,0,0,1,.34.32l.18.19a3.53,3.53,0,0,1,.2.31Z" transform="translate(-8.97 -3.85)"/><path class="cls-1" d="M45.59,78a1.56,1.56,0,0,0,0-3.12,1.56,1.56,0,0,0,0,3.12Z" transform="translate(-8.97 -3.85)"/><path class="cls-1" d="M44.08,76.29a7.06,7.06,0,0,0,0-.87,6.33,6.33,0,0,0-.07-1,7.79,7.79,0,0,0-.48-1.9,8.78,8.78,0,0,0-2.19-3.25A11.78,11.78,0,0,0,39.77,68c-.29-.19-.58-.37-.89-.54s-.72-.39-1.06-.6A14.52,14.52,0,0,1,34,63.58a11.56,11.56,0,0,1-2.31-4.68A26,26,0,0,1,31.17,54a28.53,28.53,0,0,1,1.4-9.56A19.64,19.64,0,0,1,38,36.29a25.12,25.12,0,0,1,8.39-4.81c.71-.27,1.58-.53,2.25-.72.34-.11.68-.23,1-.35a2.74,2.74,0,0,0,.64-.35s0,0-.06.18a.19.19,0,0,0,0,.08v-.43l0-1.16a4.75,4.75,0,0,1,.15-1.49,3.18,3.18,0,0,1,1-1.51A3.43,3.43,0,0,1,52.78,25a4.38,4.38,0,0,1,.79-.1h.66a18.57,18.57,0,0,1,2.43.29c1.58.27,3.1.65,4.61,1.06,3,.84,6,1.86,8.85,3a51.65,51.65,0,0,1,8.66,3.67,26.59,26.59,0,0,1,6.92,6.52L88.51,43c.95,1.19,2,2.3,2.94,3.65a4.75,4.75,0,0,1,1,2.55A3,3,0,0,1,92,50.7a4.77,4.77,0,0,1-.85,1.06,7.22,7.22,0,0,1-1,.79l-.9.68-1.81,1.43-1.83,1.42-.94.72a3.57,3.57,0,0,1-1.29.51,22,22,0,0,1-4.74.36c-.78,0-1.55,0-2.33-.06l-1.16-.06-.58,0a2.1,2.1,0,0,0-.5,0c-1.36.15-2.44,1.34-3.41,2.47a23.58,23.58,0,0,0-5,7.64,19.74,19.74,0,0,1,1.73-4.3,20.69,20.69,0,0,1,1.22-2c.45-.66.94-1.24,1.42-1.84a13.33,13.33,0,0,1,1.65-1.72A4.55,4.55,0,0,1,74,56.7a4.6,4.6,0,0,1,.64-.05h1.73c.77,0,1.53,0,2.29,0a20.5,20.5,0,0,0,4.43-.55,2.65,2.65,0,0,0,.84-.36l.89-.69,1.8-1.43,1.8-1.45c.29-.23.63-.5.94-.72a7.79,7.79,0,0,0,.8-.69,2.06,2.06,0,0,0,.75-1.47,3.4,3.4,0,0,0-.74-1.68c-.85-1.16-1.94-2.28-2.94-3.47s-1.91-2.47-2.87-3.64a24.75,24.75,0,0,0-6.55-6,49.8,49.8,0,0,0-8.39-3.37c-2.88-1-5.78-2-8.71-2.77-1.47-.38-3-.72-4.41-.95s-3.14-.41-3.5.09a.81.81,0,0,0-.25.43,2.45,2.45,0,0,0,0,.79l0,1.16v.58a1.64,1.64,0,0,1,0,.22,2.13,2.13,0,0,1-.65,1.15,4.62,4.62,0,0,1-1.34.83,11.7,11.7,0,0,1-1.19.44c-.81.25-1.42.44-2.14.72a22.65,22.65,0,0,0-7.51,4.39,16.94,16.94,0,0,0-4.6,7.13A25.53,25.53,0,0,0,34,54a21.69,21.69,0,0,0,.45,4.28,8.9,8.9,0,0,0,1.78,3.52,12.19,12.19,0,0,0,3.15,2.63c.31.19.58.32,1,.53s.74.42,1.09.65a13.34,13.34,0,0,1,2,1.58,11.76,11.76,0,0,1,3,4.32A11.42,11.42,0,0,1,47,74.05a11.73,11.73,0,0,1,.11,1.33A8.41,8.41,0,0,1,47,76.82Z" transform="translate(-8.97 -3.85)"/><path class="cls-1" d="M83.55,59.86a1,1,0,0,0,0-2,1,1,0,0,0,0,2Z" transform="translate(-8.97 -3.85)"/><path class="cls-1" d="M84.31,58.21,89.24,64l.62.73.16.18a2.94,2.94,0,0,1,.2.26,3,3,0,0,1,.34.64,2.26,2.26,0,0,1,0,1.62l-.2.45c0,.12-.1.25-.14.38a9,9,0,0,0-.39,3.39,19.38,19.38,0,0,0,.58,3.57c.07.3.16.59.24.89l.14.48a3,3,0,0,1,.08.7,4.28,4.28,0,0,1-.74,2.26,3.1,3.1,0,0,1-1,.92,7,7,0,0,1-1,.46,18.17,18.17,0,0,1-1.9.61c-1.25.34-2.51.59-3.78.82s-2.59.37-3.72.58a11.49,11.49,0,0,0-3.25,1.41,13.29,13.29,0,0,0-2.77,2.31,21.37,21.37,0,0,0-2.24,3,14.65,14.65,0,0,1-6.16,4.71A24,24,0,0,1,57,96.17a28.62,28.62,0,0,0,7.09-2.51A14.07,14.07,0,0,0,69.61,89a17.24,17.24,0,0,1,5.21-5.79,12.82,12.82,0,0,1,3.65-1.69c1.35-.3,2.52-.43,3.76-.7s2.44-.53,3.62-.88c.59-.18,1.17-.36,1.71-.58.27-.12.53-.24.74-.36a1.39,1.39,0,0,0,.38-.41,2.52,2.52,0,0,0,.41-1.31.83.83,0,0,0,0-.24l-.13-.43c-.09-.31-.19-.62-.27-.94a21,21,0,0,1-.7-3.9,10.8,10.8,0,0,1,.42-4.12c.05-.17.12-.34.18-.51l.19-.42a.35.35,0,0,0,0-.24,7.61,7.61,0,0,0-1-1.2l-5-5.75Z" transform="translate(-8.97 -3.85)"/></svg>